<svg viewBox="0 0 34 35" xmlns="http://www.w3.org/2000/svg" >
    <path fill="#FFFFFF"
        d="M0 25.1v-7.8c0-4.7 1.8-8.8 5.2-12.1 2.6-2.5 5.8-4 9.4-4.5C21.5-.4 28.3 3 31.8 9.1c1.6 3 2.4 6.2 2.2 9.5-.4 4.6-2.3 8.5-5.7 11.6-2.5 2.2-5.4 3.6-8.6 4.1-.6.1-1.3.2-2 .2H.6c-.4 0-.5-.1-.5-.5-.1-3-.1-6-.1-8.9zM16.9 7.8c-.6 0-1.2.1-1.8.2-6.2 1.3-9.6 8.1-6.7 13.7.1.3.1.5.1.7-.5 1.6-1 3.2-1.4 4.7-.1.1-.1.3-.1.4.1.1.3 0 .4-.1 1.7-.4 3.4-.9 5.1-1.3.3-.1.6-.1.9.1 1.6.7 3.4.9 5.1.6 5.2-.8 8.9-5.7 8.1-11-.8-4.5-4.8-8-9.7-8z">
    </path>
</svg>